<?xml version="1.0" encoding="UTF-8"?>
<svg width="21px" height="18px" viewBox="0 0 21 18" version="1.1" xmlns="http://www.w3.org/2000/svg" xmlns:xlink="http://www.w3.org/1999/xlink">
    <title>8DB52846-8B2E-4969-AE0F-45261789FFEE</title>
    <g id="website" stroke="none" stroke-width="1" fill="none" fill-rule="evenodd">
        <g id="4" transform="translate(-485.000000, -335.000000)" fill="#FFFFFF" fill-rule="nonzero">
            <g id="Group-4" transform="translate(168.000000, 0.000000)">
                <g id="Group-18" transform="translate(304.000000, 105.000000)">
                    <g id="Group" transform="translate(14.000000, 231.000000)">
                        <path d="M17.634375,3.22051282 L15.6354167,3.22051282 L15.4375,1.18974359 C15.3979167,0.841025641 15.2395833,0.533333333 14.9822917,0.307692308 C14.725,0.0820512821 14.3885417,-0.0205128205 14.0520833,0.0205128205 L1.22708333,1.41538462 C0.534375,1.4974359 0.0395833333,2.13333333 0.0989583333,2.85128205 L1.128125,12.9435897 C1.1875,13.6205128 1.74166667,14.1128205 2.375,14.1128205 C2.41458333,14.1128205 2.47395833,14.1128205 2.51354167,14.1128205 L3.503125,14.0102564 L3.503125,14.6666667 C3.503125,15.3846154 4.07708333,15.9794872 4.76979167,15.9794872 L17.6541667,15.9794872 C18.346875,15.9794872 18.9208333,15.3846154 18.9208333,14.6666667 L18.9208333,4.53333333 C18.9010417,3.81538462 18.3270833,3.22051282 17.634375,3.22051282 Z M3.503125,4.53333333 L3.503125,13.2512821 L2.434375,13.374359 C2.29583333,13.3948718 2.15729167,13.3538462 2.03854167,13.2512821 C1.91979167,13.1692308 1.86041667,13.025641 1.840625,12.8820513 L0.83125,2.78974359 C0.791666667,2.48205128 1.009375,2.21538462 1.30625,2.19487179 L14.1114583,0.8 C14.13125,0.8 14.1510417,0.8 14.1708333,0.8 C14.4479167,0.8 14.665625,1.00512821 14.7052083,1.29230769 L14.903125,3.24102564 L4.76979167,3.24102564 C4.05729167,3.22051282 3.503125,3.81538462 3.503125,4.53333333 Z M18.16875,14.6666667 C18.16875,14.974359 17.93125,15.2205128 17.634375,15.2205128 L4.76979167,15.2205128 C4.47291667,15.2205128 4.23541667,14.974359 4.23541667,14.6666667 L4.23541667,10.2153846 L6.74895833,7.61025641 C7.10520833,7.24102564 7.71875,7.22051282 8.075,7.61025641 L13.0229167,12.7384615 C13.1020833,12.8205128 13.18125,12.8410256 13.2802083,12.8410256 C13.3791667,12.8410256 13.4583333,12.8 13.5375,12.7384615 C13.6760417,12.5948718 13.6760417,12.3487179 13.5375,12.2051282 L12.825,11.4666667 L14.2697917,9.96923077 C14.4083333,9.82564103 14.6458333,9.82564103 14.784375,9.96923077 L18.16875,13.4769231 L18.16875,14.6666667 L18.16875,14.6666667 Z M18.16875,12.4102564 L15.2989583,9.41538462 C14.8635417,8.98461538 14.1708333,8.98461538 13.7552083,9.41538462 L12.3104167,10.9128205 L8.58958333,7.07692308 C7.93645833,6.4 6.8875,6.4 6.234375,7.07692308 L4.23541667,9.14871795 L4.23541667,4.53333333 C4.23541667,4.22564103 4.47291667,3.97948718 4.76979167,3.97948718 L17.6541667,3.97948718 C17.9510417,3.97948718 18.1885417,4.22564103 18.1885417,4.53333333 L18.1885417,12.4102564 L18.16875,12.4102564 Z" id="Shape" stroke="#FFFFFF" stroke-width="0.5"></path>
                        <path d="M15.140625,5.00512821 C14.2895833,5.00512821 13.6166667,5.72307692 13.6166667,6.58461538 C13.6166667,7.44615385 14.309375,8.16410256 15.140625,8.16410256 C15.9916667,8.16410256 16.6645833,7.44615385 16.6645833,6.58461538 C16.6645833,5.72307692 15.9916667,5.00512821 15.140625,5.00512821 Z M15.140625,7.42564103 C14.7052083,7.42564103 14.3489583,7.05641026 14.3489583,6.60512821 C14.3489583,6.15384615 14.7052083,5.78461538 15.140625,5.78461538 C15.5760417,5.78461538 15.9322917,6.15384615 15.9322917,6.60512821 C15.9322917,7.05641026 15.5760417,7.42564103 15.140625,7.42564103 Z" id="Shape"></path>
                    </g>
                </g>
            </g>
        </g>
    </g>
</svg>