<?xml version="1.0" encoding="UTF-8"?>
<svg width="38px" height="41px" viewBox="0 0 38 41" version="1.1" xmlns="http://www.w3.org/2000/svg" xmlns:xlink="http://www.w3.org/1999/xlink">
    <title>2ECA727F-8F55-48EC-9412-D9B8A2A4CE99</title>
    <g id="website" stroke="none" stroke-width="1" fill="none" fill-rule="evenodd">
        <g id="4" transform="translate(-204.000000, -35.000000)" fill-rule="nonzero">
            <g id="Group-4" transform="translate(168.000000, 0.000000)">
                <g id="Group-5" transform="translate(1.000000, 0.000000)">
                    <g id="Asset-1" transform="translate(35.000000, 35.000000)">
                        <path d="M20.2700575,6.8430244 L8.94354607,0.512659751 C8.02919209,-0.00097027205 6.94474896,-0.135195345 5.92968514,0.139624328 C4.91462132,0.414444001 4.05243566,1.07570184 3.53351737,1.97737782 L0.518348978,7.21403478 C-0.563370016,9.08807734 0.102759044,11.4704933 2.00630317,12.535715 L11.3187764,17.7414544 C12.2336938,18.2522606 12.9046758,19.1002814 13.1837971,20.0985613 C13.4629185,21.0968412 13.3272606,22.1634112 12.8067306,23.0631346 L7.52625989,32.2185887 C7.00682633,33.1207757 6.87344369,34.1893498 7.15554826,35.1884868 C7.43765283,36.1876238 8.1120541,37.0351893 9.02991809,37.5441335 L14.3496488,40.4967578 C15.2659035,41.0053117 16.3498837,41.134659 17.3630364,40.856334 C18.3761892,40.578009 19.2354878,39.9148202 19.7518255,39.0127163 L26.1237243,27.8630814 C26.6378932,26.9683404 26.7719557,25.9098103 26.4966944,24.9181865 L22.1349078,9.20821559 C21.8573738,8.20715247 21.1863346,7.35607291 20.2700575,6.8430244 Z" id="Path" fill="#1F68E4"></path>
                        <path d="M26.3609416,11.5273294 L29.1839543,21.6678332 C29.4671963,22.6482601 30.319813,23.3675281 31.3495874,23.4947627 C32.3793619,23.6219974 33.3868776,23.1325596 33.9086617,22.2515984 L37.6569297,15.7760575 C38,15.1884887 38.0901586,14.490874 37.9076146,13.8377725 C37.7250706,13.184671 37.2848291,12.6300048 36.6844274,12.2966624 L30.132833,8.65102947 C29.2243235,8.14525185 28.095189,8.22551672 27.2703463,8.85451021 C26.4455035,9.48350369 26.0867804,10.5378221 26.3609416,11.5273294 L26.3609416,11.5273294 Z" id="Path" fill="#1ED1F5"></path>
                    </g>
                </g>
            </g>
        </g>
    </g>
</svg>