<?xml version="1.0" encoding="UTF-8"?>
<svg width="4px" height="14px" viewBox="0 0 4 14" version="1.1" xmlns="http://www.w3.org/2000/svg" xmlns:xlink="http://www.w3.org/1999/xlink">
    <title>B41152D6-8ECF-4539-904A-C4AAFF77537D</title>
    <g id="website" stroke="none" stroke-width="1" fill="none" fill-rule="evenodd" opacity="0.332728795">
        <g id="4" transform="translate(-816.000000, -53.000000)" fill="#000000" fill-rule="nonzero">
            <g id="Group-4" transform="translate(168.000000, 0.000000)">
                <g id="noun_more_2232435" transform="translate(648.000000, 53.000000)">
                    <path d="M1.92000006,0 C0.916800027,0 0.100800003,0.816000024 0.100800003,1.81920005 C0.100800003,2.82240008 0.916800027,3.63840011 1.92000006,3.63840011 C2.92320009,3.63840011 3.73920011,2.82240008 3.73920011,1.81920005 C3.73920011,0.816000024 2.92320009,0 1.92000006,0 Z" id="Shape"></path>
                    <path d="M1.92000006,4.90080015 C0.916800027,4.90080015 0.100800003,5.71680017 0.100800003,6.7200002 C0.100800003,7.72320023 0.916800027,8.53920025 1.92000006,8.53920025 C2.92320009,8.53920025 3.73920011,7.72320023 3.73920011,6.7200002 C3.73920011,5.71680017 2.92320009,4.90080015 1.92000006,4.90080015 Z" id="Shape"></path>
                    <path d="M1.92000006,9.80160029 C0.916800027,9.80160029 0.100800003,10.6176003 0.100800003,11.6208003 C0.100800003,12.6240004 0.916800027,13.4400004 1.92000006,13.4400004 C2.92320009,13.4400004 3.73920011,12.6240004 3.73920011,11.6208003 C3.73920011,10.6176003 2.92320009,9.80160029 1.92000006,9.80160029 Z" id="Shape"></path>
                </g>
            </g>
        </g>
    </g>
</svg>