<?xml version="1.0" encoding="UTF-8"?>
<svg width="27px" height="26px" viewBox="0 0 27 26" version="1.1" xmlns="http://www.w3.org/2000/svg" xmlns:xlink="http://www.w3.org/1999/xlink">
    <title>1C742700-F69C-4962-A006-575E583970B0</title>
    <g id="website" stroke="none" stroke-width="1" fill="none" fill-rule="evenodd">
        <g id="4" transform="translate(-502.000000, -969.000000)" fill="#FF8E9D">
            <g id="Menu" transform="translate(445.000000, 947.000000)">
                <g id="Shape" transform="translate(57.000000, 22.000000)">
                    <path d="M23.6387755,0 L3.36122449,0 C1.51530612,0 0,1.4742268 0,3.27010309 L0,22.756701 C0,24.5257732 1.51530612,26 3.36122449,26 L23.6663265,26 C25.4846939,26 27,24.5257732 27,22.7298969 L27,3.27010309 C27,1.4742268 25.4846939,0 23.6387755,0 Z M13.1969388,7.31752577 L22.1785714,7.31752577 C22.6744898,7.31752577 23.0877551,7.71958763 23.0877551,8.20206186 C23.0877551,8.68453608 22.6744898,9.08659794 22.1785714,9.08659794 L13.1969388,9.08659794 C12.7010204,9.08659794 12.2877551,8.68453608 12.2877551,8.20206186 C12.3153061,7.69278351 12.7010204,7.31752577 13.1969388,7.31752577 Z M12.3153061,4.69072165 C12.3153061,4.20824742 12.7285714,3.80618557 13.2244898,3.80618557 L19.4510204,3.80618557 C19.9469388,3.80618557 20.3602041,4.20824742 20.3602041,4.69072165 C20.3602041,5.17319588 19.9469388,5.57525773 19.4510204,5.57525773 L13.1969388,5.57525773 C12.7010204,5.54845361 12.3153061,5.17319588 12.3153061,4.69072165 Z M9.3122449,4.98556701 L9.3122449,7.88041237 C9.3122449,8.52371134 8.76122449,9.05979381 8.1,9.05979381 L5.1244898,9.05979381 C4.46326531,9.05979381 3.9122449,8.52371134 3.9122449,7.88041237 L3.9122449,4.98556701 C3.9122449,4.34226804 4.46326531,3.80618557 5.1244898,3.80618557 L8.1,3.80618557 C8.76122449,3.80618557 9.3122449,4.34226804 9.3122449,4.98556701 Z M23.6387755,23.8556701 L3.36122449,23.8556701 C2.72755102,23.8556701 2.20408163,23.3463918 2.20408163,22.7298969 L2.20408163,11.7938144 L24.7959184,11.7938144 L24.7959184,22.7298969 C24.7959184,23.3463918 24.272449,23.8556701 23.6387755,23.8556701 Z"></path>
                </g>
            </g>
        </g>
    </g>
</svg>