<?xml version="1.0" encoding="UTF-8"?>
<svg width="20px" height="20px" viewBox="0 0 20 20" version="1.1" xmlns="http://www.w3.org/2000/svg" xmlns:xlink="http://www.w3.org/1999/xlink">
    <title>A449ABA1-5E5D-485F-86D8-0CC028EEF0C7</title>
    <g id="website" stroke="none" stroke-width="1" fill="none" fill-rule="evenodd">
        <g id="4" transform="translate(-416.000000, -244.000000)" fill="#175ED7" fill-rule="nonzero">
            <g id="Group-4" transform="translate(168.000000, 0.000000)">
                <g id="Group" transform="translate(248.200000, 244.500000)">
                    <path d="M9.55900106,19.1180021 C14.8382916,19.1180021 19.1180021,14.8382916 19.1180021,9.55900106 C19.1180021,4.27971055 14.8382916,0 9.55900106,0 C4.27971055,0 0,4.27971055 0,9.55900106 C0,14.8382484 4.27975373,19.1180021 9.55900106,19.1180021 L9.55900106,19.1180021 Z M3.65536201,3.65536201 C6.47183484,0.838904058 10.8856217,0.404194279 14.1974303,2.61708347 C17.5092389,4.82997267 18.7966857,9.07414133 17.2724209,12.7540287 C15.748156,16.4339161 11.8367076,18.5246239 7.93015841,17.7475604 C4.02360919,16.9704968 1.20997699,13.5420846 1.20997699,9.55900106 C1.2067997,7.34407258 2.08691419,5.21929608 3.65536201,3.65536201 Z" id="Shape"></path>
                    <path d="M5.00500007,10.0586431 L8.84840577,10.0586431 L8.84840577,14.244958 C8.84840577,14.5790903 9.11927353,14.849958 9.45340584,14.849958 C9.78753815,14.849958 10.0584059,14.5790903 10.0584059,14.244958 L10.0584059,10.0586431 L14.244958,10.0586431 C14.5790903,10.0586431 14.849958,9.78777531 14.849958,9.453643 C14.849958,9.11951069 14.5790903,8.84864293 14.244958,8.84864293 L10.0584059,8.84864293 L10.0584059,5.00500007 C10.0584059,4.67086776 9.78753815,4.4 9.45340584,4.4 C9.11927353,4.4 8.84840577,4.67086776 8.84840577,5.00500007 L8.84840577,8.84864293 L5.00500007,8.84864293 C4.67086776,8.84864293 4.4,9.11951069 4.4,9.453643 C4.4,9.78777531 4.67086776,10.0586431 5.00500007,10.0586431 Z" id="Path"></path>
                </g>
            </g>
        </g>
    </g>
</svg>