<?xml version="1.0" encoding="UTF-8"?>
<svg width="22px" height="24px" viewBox="0 0 22 24" version="1.1" xmlns="http://www.w3.org/2000/svg" xmlns:xlink="http://www.w3.org/1999/xlink">
    <title>DD32B569-64E9-45C3-964D-C0AA1710D439</title>
    <g id="website" stroke="none" stroke-width="1" fill="none" fill-rule="evenodd">
        <g id="4" transform="translate(-208.000000, -186.000000)" fill="#175ED7" fill-rule="nonzero">
            <g id="Group-4" transform="translate(168.000000, 0.000000)">
                <g id="Group-Copy" transform="translate(40.300000, 186.181056)">
                    <path d="M11.6255277,21.4070062 L4.16915476,21.4070062 C2.80616186,21.4070062 1.68369711,20.2845414 1.68369711,18.9215485 L1.68369711,17.6387317 C1.68369711,14.3515135 4.40968292,11.6255277 7.6969011,11.6255277 L11.6255277,11.6255277 C13.8704572,11.6255277 15.8748585,12.8281685 16.9171472,14.8325698 C17.1576754,15.2334501 17.6387317,15.3938022 18.0396119,15.153274 C18.4404922,14.9127459 18.6008443,14.4316896 18.3603162,14.0308093 C17.3180275,12.026408 15.4739782,10.6634151 13.3894009,10.1823587 C14.6722177,9.14007005 15.3938022,7.53654899 15.3938022,5.77267582 C15.3938022,2.5656337 12.8281685,0 9.62112637,0 C6.41408425,0 3.84845055,2.5656337 3.84845055,5.77267582 C3.84845055,7.53654899 4.65021108,9.14007005 5.85285188,10.1823587 C2.48545765,10.9841193 0,14.0308093 0,17.5585556 L0,18.8413725 C0,21.086302 1.84404922,22.9303512 4.08897871,22.9303512 L11.5453516,22.9303512 C12.026408,22.9303512 12.3471122,22.609647 12.3471122,22.1285907 C12.3471122,21.6475343 12.106584,21.4070062 11.6255277,21.4070062 Z M5.45197161,5.85285188 C5.45197161,3.52774634 7.29602083,1.68369711 9.62112637,1.68369711 C11.9462319,1.68369711 13.7902811,3.52774634 13.7902811,5.85285188 C13.7902811,8.17795741 11.9462319,10.0220066 9.62112637,10.0220066 C7.29602083,10.0220066 5.45197161,8.17795741 5.45197161,5.85285188 Z" id="Shape"></path>
                    <path d="M20.2845414,19.3224288 L18.3603162,19.3224288 L18.3603162,17.3982035 C18.3603162,16.9171472 18.0396119,16.596443 17.5585556,16.596443 C17.0774993,16.596443 16.7567951,16.9171472 16.7567951,17.3982035 L16.7567951,19.3224288 L14.8325698,19.3224288 C14.3515135,19.3224288 14.0308093,19.643133 14.0308093,20.1241893 C14.0308093,20.6052456 14.3515135,20.9259499 14.8325698,20.9259499 L16.7567951,20.9259499 L16.7567951,22.7699991 C16.7567951,23.2510554 17.0774993,23.5717596 17.5585556,23.5717596 C18.0396119,23.5717596 18.3603162,23.2510554 18.3603162,22.7699991 L18.3603162,20.8457738 L20.2845414,20.8457738 C20.7655977,20.8457738 21.086302,20.5250696 21.086302,20.0440133 C21.086302,19.562957 20.7655977,19.3224288 20.2845414,19.3224288 Z" id="Path"></path>
                </g>
            </g>
        </g>
    </g>
</svg>