<?xml version="1.0" encoding="UTF-8"?>
<svg width="147px" height="147px" viewBox="0 0 147 147" version="1.1" xmlns="http://www.w3.org/2000/svg" xmlns:xlink="http://www.w3.org/1999/xlink">
    <title>1E87EBCC-94CE-4AF3-B17F-C8223A5470ED</title>
    <defs>
        <path d="M32.151124,-1.29894389e-15 L80.4888885,1.29894389e-15 C91.6685348,-7.54723807e-16 95.7225446,1.16403329 99.8096562,3.34984448 C103.896768,5.53565566 107.104357,8.74324474 109.290168,12.8303563 C111.475979,16.9174679 112.640013,20.9714777 112.640013,32.151124 L112.640013,80.4888885 C112.640013,91.6685348 111.475979,95.7225446 109.290168,99.8096562 C107.104357,103.896768 103.896768,107.104357 99.8096562,109.290168 C95.7225446,111.475979 91.6685348,112.640013 80.4888885,112.640013 L32.151124,112.640013 C20.9714777,112.640013 16.9174679,111.475979 12.8303563,109.290168 C8.74324474,107.104357 5.53565566,103.896768 3.34984448,99.8096562 C1.16403329,95.7225446 5.03149205e-16,91.6685348 -8.65962593e-16,80.4888885 L8.65962593e-16,32.151124 C-5.03149205e-16,20.9714777 1.16403329,16.9174679 3.34984448,12.8303563 C5.53565566,8.74324474 8.74324474,5.53565566 12.8303563,3.34984448 C16.9174679,1.16403329 20.9714777,7.54723807e-16 32.151124,-1.29894389e-15 Z" id="path-1"></path>
        <filter x="-23.5%" y="-21.8%" width="147.1%" height="147.1%" filterUnits="objectBoundingBox" id="filter-2">
            <feOffset dx="0" dy="2" in="SourceAlpha" result="shadowOffsetOuter1"></feOffset>
            <feGaussianBlur stdDeviation="8.5" in="shadowOffsetOuter1" result="shadowBlurOuter1"></feGaussianBlur>
            <feColorMatrix values="0 0 0 0 0   0 0 0 0 0   0 0 0 0 0  0 0 0 0.0846536276 0" type="matrix" in="shadowBlurOuter1"></feColorMatrix>
        </filter>
    </defs>
    <g id="website" stroke="none" stroke-width="1" fill="none" fill-rule="evenodd">
        <g id="1" transform="translate(-439.000000, -264.000000)">
            <g id="Group-4" transform="translate(329.000000, 279.000000)">
                <g id="Group-2" transform="translate(127.000000, 0.000000)">
                    <g id="Rectangle">
                        <use fill="black" fill-opacity="1" filter="url(#filter-2)" xlink:href="#path-1"></use>
                        <use fill="#FFFFFF" fill-rule="evenodd" xlink:href="#path-1"></use>
                    </g>
                    <g id="Asset-1" transform="translate(18.700002, 15.180002)" fill-rule="nonzero">
                        <path d="M40.1464546,13.7327835 L17.7134014,1.02882073 C15.9024509,-0.00194717061 13.7546254,-0.27131401 11.7442111,0.280202226 C9.73379682,0.831718462 8.02616982,2.15875022 6.99841104,3.96826022 L1.02663121,14.4773381 C-1.11579894,18.238222 0.203522426,23.0193247 3.97364235,25.157043 L22.4177332,35.6040746 C24.2297995,36.6291757 25.5587325,38.3310088 26.1115545,40.3343863 C26.6643765,42.3377639 26.3956953,44.4781882 25.3647443,46.2837796 L14.9063539,64.6572153 C13.8775746,66.4677509 13.6133997,68.6121969 14.1721301,70.6172946 C14.7308606,72.6223922 16.0665657,74.3233117 17.884468,75.344676 L28.420616,81.2700897 C30.2353312,82.2906706 32.3822397,82.5502485 34.388869,81.9916977 C36.3954983,81.4331469 38.0974073,80.10224 39.1200549,78.2918713 L51.7401053,55.9164546 C52.7584574,54.120862 53.0239789,51.9965725 52.478802,50.0065525 L43.8399382,18.479319 C43.2902601,16.470356 41.9612138,14.7623844 40.1464546,13.7327835 Z" id="Path" fill="#1F68E4"></path>
                        <path d="M52.2099328,23.1333852 L57.8011331,43.4836477 C58.3621164,45.4511973 60.0507913,46.8946455 62.0903411,47.1499837 C64.129891,47.405322 66.1253556,46.4231038 67.1587905,44.6551649 L74.582532,31.6598581 C75.26201,30.4807077 75.4405762,29.0807139 75.0790333,27.7700505 C74.7174905,26.4593871 73.8455574,25.3462667 72.6564142,24.6773052 L59.6804626,17.3611415 C57.8810876,16.346132 55.6447473,16.5072099 54.0110809,17.7694926 C52.3774145,19.0317753 51.6669349,21.1476126 52.2099328,23.1333852 L52.2099328,23.1333852 Z" id="Path" fill="#1ED1F5"></path>
                    </g>
                </g>
            </g>
        </g>
    </g>
</svg>